<svg width="114" height="116" viewBox="0 0 114 116" fill="none" xmlns="http://www.w3.org/2000/svg">
<path d="M82.5469 33.2734C82.8203 33.2734 83.0547 33.3711 83.25 33.5664L90.5156 41.5352L104.695 22.7852C104.852 22.5508 105.086 22.4336 105.398 22.4336C105.594 22.4336 105.867 22.5508 106.219 22.7852C106.57 23.0195 106.922 23.3125 107.273 23.6641C107.664 23.9766 108.035 24.2891 108.387 24.6016C108.738 24.9141 108.992 25.1289 109.148 25.2461C109.383 25.4414 109.5 25.6758 109.5 25.9492C109.5 26.1445 109.441 26.3203 109.324 26.4766L90.5156 50.5L78.9727 37.4336C78.7773 37.2383 78.6797 37.043 78.6797 36.8477C78.6797 36.6523 78.7773 36.457 78.9727 36.2617C79.1289 36.1445 79.3633 35.9297 79.6758 35.6172C79.9883 35.2656 80.3203 34.9141 80.6719 34.5625C81.0625 34.2109 81.4141 33.918 81.7266 33.6836C82.0781 33.4102 82.3516 33.2734 82.5469 33.2734ZM105.75 76.75H72V61.75H105.75V76.75ZM102 65.5H75.75V73H102V65.5ZM72 95.5V80.5H105.75V95.5H72ZM75.75 91.75H102V84.25H75.75V91.75ZM105.75 58H72V24.25H98.8945L96.0234 28H75.75V54.25H102V41.8867L105.75 37.082V58ZM109.5 13C110.516 13 111.395 13.3711 112.137 14.1133C112.879 14.8555 113.25 15.7344 113.25 16.75V99.25C113.25 100.266 112.879 101.145 112.137 101.887C111.395 102.629 110.516 103 109.5 103H68.25V115.012L0.75 99.4258V16.5742L68.25 0.988281V13H109.5ZM44.1094 35.3242H22.5469V80.793H31.5117V63.5078H43.0547V54.4258H31.5117V44.3477H44.1094V35.3242ZM109.5 16.75H68.25V99.25H109.5V16.75Z" fill="#008272"/>
</svg>
