<svg width="200" height="200" viewBox="0 0 200 200" fill="none" xmlns="http://www.w3.org/2000/svg">
<rect width="200" height="200" fill="#008272"/>
<path d="M129.991 79.7178C130.265 79.7178 130.499 79.8154 130.694 80.0107L137.96 87.9795L152.14 69.2295C152.296 68.9951 152.53 68.8779 152.843 68.8779C153.038 68.8779 153.312 68.9951 153.663 69.2295C154.015 69.4639 154.366 69.7568 154.718 70.1084C155.108 70.4209 155.479 70.7334 155.831 71.0459C156.183 71.3584 156.437 71.5732 156.593 71.6904C156.827 71.8857 156.944 72.1201 156.944 72.3936C156.944 72.5889 156.886 72.7646 156.769 72.9209L137.96 96.9443L126.417 83.8779C126.222 83.6826 126.124 83.4873 126.124 83.292C126.124 83.0967 126.222 82.9014 126.417 82.7061C126.573 82.5889 126.808 82.374 127.12 82.0615C127.433 81.71 127.765 81.3584 128.116 81.0068C128.507 80.6553 128.858 80.3623 129.171 80.1279C129.522 79.8545 129.796 79.7178 129.991 79.7178ZM153.194 123.194H119.444V108.194H153.194V123.194ZM149.444 111.944H123.194V119.444H149.444V111.944ZM119.444 141.944V126.944H153.194V141.944H119.444ZM123.194 138.194H149.444V130.694H123.194V138.194ZM153.194 104.444H119.444V70.6943H146.339L143.468 74.4443H123.194V100.694H149.444V88.3311L153.194 83.5264V104.444ZM156.944 59.4443C157.96 59.4443 158.839 59.8154 159.581 60.5576C160.323 61.2998 160.694 62.1787 160.694 63.1943V145.694C160.694 146.71 160.323 147.589 159.581 148.331C158.839 149.073 157.96 149.444 156.944 149.444H115.694V161.456L48.1943 145.87V63.0186L115.694 47.4326V59.4443H156.944ZM91.5537 81.7686H69.9912V127.237H78.9561V109.952H90.499V100.87H78.9561V90.792H91.5537V81.7686ZM156.944 63.1943H115.694V145.694H156.944V63.1943Z" fill="white"/>
</svg>
