<?xml version="1.0" encoding="utf-8"?>
<!-- Generator: Adobe Illustrator 22.1.0, SVG Export Plug-In . SVG Version: 6.00 Build 0)  -->
<svg version="1.1" id="ICONS-64x" xmlns="http://www.w3.org/2000/svg" xmlns:xlink="http://www.w3.org/1999/xlink" x="0px" y="0px"
	 viewBox="0 0 96 96" style="enable-background:new 0 0 96 96;" xml:space="preserve">
<style type="text/css">
	.st0{fill:#008272;}
	.st1{fill:#1A6B5F;}
	.st2{fill:#4E4E4E;}
	.st3{fill:#FFFFFF;}
	.st4{fill:#E5E5E5;}
	.st5{fill:none;stroke:#4E4E4E;stroke-width:3;stroke-miterlimit:10;}
	.st6{fill:#FFFFFF;stroke:#1A6B5F;stroke-width:3;stroke-miterlimit:10;}
	.st7{fill:none;stroke:#4E4E4E;stroke-width:2;stroke-miterlimit:10;}
	.st8{fill:#FFFFFF;stroke:#1A6B5F;stroke-width:2;stroke-miterlimit:10;}
</style>
<path class="st0" d="M9.8,91.2c-1.2,0.4-2.4,0.7-3.7,1.1C13.8,60.2,29,66,29,66l2.5,2.4l0.1,0.3C32.2,70.8,34.3,83.5,9.8,91.2z"/>
<path class="st1" d="M9.8,91.2c7.6-26.4,20.6-22.9,21.9-22.6C32.2,70.8,34.3,83.5,9.8,91.2z"/>
<polygon class="st2" points="32.9,74.7 22.1,63.9 30.7,61.8 34.8,65.8 "/>
<polygon class="st2" points="35,50.8 5.8,49.7 1.5,45.4 26.4,33.5 36.8,37.4 "/>
<polygon class="st2" points="47.4,59.6 48.4,88.8 52.8,93.1 64.6,68.3 60.7,57.9 "/>
<path class="st3" d="M41.5,72.5h-0.3L41,72.2L25.6,56.2v-0.4c2.8-11.8,8.9-22.5,17.6-31c14-13.9,46.6-19.7,47.9-20l1.1-0.2l-0.2,1.1
	c0,0-0.6,3.4-1.7,8.3C87,27.4,81.3,45.2,72.3,54.3C58.2,68.5,42.8,72.5,41.5,72.5z"/>
<path class="st4" d="M89.4,15.9c-2.6,10.9-8.2,29.7-17.7,39.3C57.6,69.4,42.2,72.3,41.4,72.5l-8.6-8.6c0,0,2.7-15.8,17.3-30.3
	C59.7,24.1,78.5,18.5,89.4,15.9z"/>
<path class="st1" d="M92.4,4.2c-9.6,1.8-19,4.6-28,8.3L84.9,33C88.2,23.6,90.7,14,92.4,4.2z"/>
<path class="st5" d="M41.5,72.5h-0.3L41,72.2L25.6,56.2v-0.4c2.8-11.8,8.9-22.5,17.6-31c14-13.9,46.6-19.7,47.9-20l1.1-0.2l-0.2,1.1
	c0,0-0.6,3.4-1.7,8.3C87,27.4,81.3,45.2,72.3,54.3C58.2,68.5,42.8,72.5,41.5,72.5z"/>
<circle class="st6" cx="56.5" cy="39.6" r="7.6"/>
</svg>
