<?xml version="1.0" encoding="utf-8"?>
<!-- Generator: Adobe Illustrator 22.1.0, SVG Export Plug-In . SVG Version: 6.00 Build 0)  -->
<svg version="1.1" id="Layer_1" xmlns="http://www.w3.org/2000/svg" xmlns:xlink="http://www.w3.org/1999/xlink" x="0px" y="0px"
	 viewBox="0 0 96 96" style="enable-background:new 0 0 96 96;" xml:space="preserve">
<style type="text/css">
	.st0{fill:#4E4E4E;}
	.st1{fill:#E5E5E5;}
	.st2{fill:#1A6B5F;}
	.st3{fill:none;stroke:#4E4E4E;stroke-width:2;stroke-miterlimit:10;}
</style>
<g>
	<path class="st0" d="M36.7,94H4.9V3h31.8V94z M7.8,91.1h26V5.9h-26V91.1z"/>
</g>
<g>
	<path class="st0" d="M90.1,94H62.7V14.6h27.4V94z M65.6,91.1h21.7V17.4H65.6V91.1z"/>
</g>
<g>
	<path class="st0" d="M65.6,94H33.8V3h31.8V94z M36.7,91.1h26V5.9h-26V91.1z"/>
</g>
<g>
	<rect x="6.3" y="13.1" class="st0" width="27.4" height="2.9"/>
</g>
<g>
	<rect x="6.3" y="81" class="st0" width="27.4" height="2.9"/>
</g>
<g>
	<rect x="65.6" y="24.7" class="st1" width="8.7" height="59.2"/>
</g>
<g>
	<rect x="64.1" y="24.7" class="st0" width="24.6" height="2.9"/>
</g>
<g>
	<rect x="7.8" y="5.9" class="st1" width="26" height="7.2"/>
</g>
<g>
	<rect x="7.8" y="83.9" class="st1" width="26" height="7.2"/>
</g>
<g>
	<rect x="65.6" y="17.4" class="st1" width="21.7" height="7.2"/>
</g>
<g>
	<rect x="65.6" y="81" class="st1" width="21.7" height="10.1"/>
</g>
<g>
	<rect x="36.7" y="5.9" class="st1" width="10.1" height="85.2"/>
</g>
<g>
	<rect x="7.8" y="16" class="st1" width="8.7" height="65"/>
</g>
<g>
	<rect x="39.6" y="11.7" class="st2" width="20.2" height="7.2"/>
</g>
<g>
	<rect x="39.6" y="78.1" class="st2" width="20.2" height="7.2"/>
</g>
<g>
	<rect x="64.1" y="79.6" class="st0" width="24.6" height="2.9"/>
</g>
</svg>
