<?xml version="1.0" encoding="utf-8"?>
<!-- Generator: Adobe Illustrator 22.1.0, SVG Export Plug-In . SVG Version: 6.00 Build 0)  -->
<svg version="1.1" id="Titles" xmlns="http://www.w3.org/2000/svg" xmlns:xlink="http://www.w3.org/1999/xlink" x="0px" y="0px"
	 viewBox="0 0 96 96" style="enable-background:new 0 0 96 96;" xml:space="preserve">
<style type="text/css">
	.st0{fill:#4E4E4E;}
	.st1{fill:#008272;}
	.st2{fill:none;stroke:#4E4E4E;stroke-width:2;stroke-miterlimit:10;}
	.st3{fill:#008272;stroke:#4E4E4E;stroke-width:2;stroke-miterlimit:10;}
</style>
<g>
	<path class="st0" d="M48,92.7c-21.4,0-38.9-17.4-38.9-38.9c0-21.4,17.4-38.9,38.9-38.9s38.9,17.4,38.9,38.9
		C86.9,75.2,69.4,92.7,48,92.7z M48,17.9c-19.8,0-35.9,16.1-35.9,35.9S28.2,89.7,48,89.7s35.9-16.1,35.9-35.9S67.8,17.9,48,17.9z"/>
</g>
<g>
	<g>
		<circle class="st1" cx="48" cy="16.4" r="13.4"/>
	</g>
	<g>
		<path class="st0" d="M48,31.3c-8.2,0-14.9-6.7-14.9-14.9S39.8,1.6,48,1.6s14.9,6.7,14.9,14.9S56.2,31.3,48,31.3z M48,4.6
			c-6.5,0-11.8,5.3-11.8,11.9S41.5,28.3,48,28.3s11.8-5.3,11.8-11.9S54.5,4.6,48,4.6z"/>
	</g>
</g>
<g>
	<g>
		<circle class="st1" cx="80" cy="69.8" r="13.4"/>
	</g>
	<g>
		<path class="st0" d="M80,84.7c-8.2,0-14.9-6.7-14.9-14.9c0-8.2,6.7-14.9,14.9-14.9s14.9,6.7,14.9,14.9C94.9,78,88.2,84.7,80,84.7z
			 M80,58c-6.5,0-11.8,5.3-11.8,11.8c0,6.5,5.3,11.9,11.8,11.9c6.5,0,11.8-5.3,11.8-11.9C91.9,63.3,86.6,58,80,58z"/>
	</g>
</g>
<g>
	<g>
		<circle class="st1" cx="16" cy="69.8" r="13.4"/>
	</g>
	<g>
		<path class="st0" d="M16,84.7C7.8,84.7,1.1,78,1.1,69.8c0-8.2,6.7-14.9,14.9-14.9s14.9,6.7,14.9,14.9C30.8,78,24.2,84.7,16,84.7z
			 M16,58C9.4,58,4.1,63.3,4.1,69.8c0,6.5,5.3,11.9,11.8,11.9s11.8-5.3,11.8-11.9C27.8,63.3,22.5,58,16,58z"/>
	</g>
</g>
</svg>
