<?xml version="1.0" encoding="utf-8"?>
<!-- Generator: Adobe Illustrator 22.1.0, SVG Export Plug-In . SVG Version: 6.00 Build 0)  -->
<svg version="1.1" id="ICONS-64x" xmlns="http://www.w3.org/2000/svg" xmlns:xlink="http://www.w3.org/1999/xlink" x="0px" y="0px"
	 viewBox="0 0 96 96" style="enable-background:new 0 0 96 96;" xml:space="preserve">
<style type="text/css">
	.st0{fill:#FFFFFF;}
	.st1{fill:#E5E5E5;}
	.st2{fill:#4E4E4E;}
	.st3{fill:#1A6B5F;}
	.st4{fill:none;stroke:#4E4E4E;stroke-width:2;stroke-miterlimit:10;}
</style>
<g>
	<path class="st0" d="M79.5,13.7h-63c-2.4-0.1-4.4,1.8-4.5,4.3v71c0.1,2.4,2.1,4.3,4.5,4.3h63c2.4,0.1,4.4-1.8,4.5-4.3V18
		C83.9,15.6,81.9,13.7,79.5,13.7z"/>
</g>
<g>
	<path class="st1" d="M83.2,16.7v12H12.8v-12c0-2.1,1.7-3.7,3.7-3.7h63C81.6,13,83.2,14.7,83.2,16.7z"/>
</g>
<g>
	<path class="st2" d="M16.4,94.8c-3.1,0-5.8-2.5-5.9-5.7V18c0.1-3.3,2.8-5.9,6-5.8h62.9c3.2-0.1,5.9,2.5,6,5.7v71
		c-0.1,3.3-2.8,5.9-6,5.8h-63C16.5,94.8,16.4,94.8,16.4,94.8z M16.4,15.2c-1.6,0-2.9,1.2-2.9,2.8V89c0,1.5,1.4,2.8,3,2.8h63
		c1.7,0,3-1.2,3-2.8V18c0-1.5-1.3-2.8-2.9-2.8c0,0,0,0-0.1,0L16.4,15.2C16.5,15.2,16.5,15.2,16.4,15.2z"/>
</g>
<g>
	<rect x="27" y="12.2" class="st0" width="42" height="10.5"/>
</g>
<g>
	<g>
		<path class="st3" d="M60,12.2c0-1.6-0.3-3.2-0.9-4.7c-1.2-2.9-3.5-5.2-6.4-6.4c-3-1.2-6.3-1.2-9.3,0c-1.4,0.6-2.7,1.5-3.8,2.6
			c-1.1,1.1-2,2.4-2.6,3.8c-0.6,1.5-0.9,3.1-0.9,4.7h-7.5v9h39v-9H60z M48,12.2c-2.1,0-3.7-1.7-3.7-3.7s1.7-3.7,3.7-3.7
			s3.7,1.7,3.7,3.7S50.1,12.2,48,12.2z"/>
	</g>
</g>
<g>
	<polygon class="st2" points="30.8,54.1 21.4,44.8 23.6,42.7 30.8,49.9 48.4,32.2 50.6,34.3 	"/>
</g>
<g>
	<polygon class="st2" points="30.8,78.1 21.4,68.8 23.6,66.7 30.8,73.9 48.4,56.2 50.6,58.3 	"/>
</g>
<g>
	<rect x="51" y="43.7" class="st2" width="24" height="3"/>
</g>
<g>
	<rect x="51" y="67.7" class="st2" width="24" height="3"/>
</g>
</svg>
